<svg xmlns="http://www.w3.org/2000/svg" width="18" height="16" fill="none" viewBox="0 0 18 16"><path fill="#121414" d="M6.118 1.313v12c0 .454-.338.814-.764.814-.425 0-.763-.36-.763-.813v-12C4.59.86 4.929.5 5.354.5c.426 0 .764.36.764.813Z"/><path fill="#121414" d="M6.096 14.685c0 .22-.076.43-.24.592-.305.314-.785.29-1.08-.034L.872 10.84a.86.86 0 0 1 .033-1.15c.305-.314.785-.29 1.08.034l3.904 4.403a.84.84 0 0 1 .207.558Z"/><path fill="#121414" d="M10.044 10.282a.819.819 0 0 1-.207.558l-3.96 4.403a.728.728 0 0 1-1.079.023.848.848 0 0 1-.022-1.15l3.96-4.403a.728.728 0 0 1 1.079-.023c.153.163.24.372.24.592h-.011ZM13.396 14.687v-12c0-.454-.338-.814-.763-.814s-.763.36-.763.813v12c0 .454.338.814.763.814s.763-.36.763-.813Z"/><path fill="#121414" d="M13.375 1.315c0-.22-.077-.43-.24-.592-.306-.314-.785-.29-1.08.035L8.151 5.16a.86.86 0 0 0 .032 1.15c.306.314.786.291 1.08-.034l3.905-4.403a.84.84 0 0 0 .207-.558Z"/><path fill="#121414" d="M17.323 5.718a.82.82 0 0 0-.207-.558L13.156.757a.728.728 0 0 0-1.08-.023.848.848 0 0 0-.02 1.15l3.958 4.403a.728.728 0 0 0 1.08.023.865.865 0 0 0 .24-.592h-.011Z"/></svg>